{
	"patcher" : 	{
		"fileversion" : 1,
		"appversion" : 		{
			"major" : 8,
			"minor" : 1,
			"revision" : 1,
			"architecture" : "x64",
			"modernui" : 1
		}
,
		"classnamespace" : "box",
		"rect" : [ 903.0, 411.0, 641.0, 480.0 ],
		"bglocked" : 0,
		"openinpresentation" : 0,
		"default_fontsize" : 12.0,
		"default_fontface" : 0,
		"default_fontname" : "Arial",
		"gridonopen" : 1,
		"gridsize" : [ 15.0, 15.0 ],
		"gridsnaponopen" : 1,
		"objectsnaponopen" : 1,
		"statusbarvisible" : 2,
		"toolbarvisible" : 1,
		"lefttoolbarpinned" : 0,
		"toptoolbarpinned" : 0,
		"righttoolbarpinned" : 0,
		"bottomtoolbarpinned" : 0,
		"toolbars_unpinned_last_save" : 0,
		"tallnewobj" : 0,
		"boxanimatetime" : 200,
		"enablehscroll" : 1,
		"enablevscroll" : 1,
		"devicewidth" : 0.0,
		"description" : "",
		"digest" : "",
		"tags" : "",
		"style" : "",
		"subpatcher_template" : "",
		"boxes" : [ 			{
				"box" : 				{
					"id" : "obj-29",
					"maxclass" : "newobj",
					"numinlets" : 0,
					"numoutlets" : 0,
					"patcher" : 					{
						"fileversion" : 1,
						"appversion" : 						{
							"major" : 8,
							"minor" : 1,
							"revision" : 1,
							"architecture" : "x64",
							"modernui" : 1
						}
,
						"classnamespace" : "box",
						"rect" : [ 238.0, 253.0, 564.0, 424.0 ],
						"bglocked" : 0,
						"openinpresentation" : 0,
						"default_fontsize" : 12.0,
						"default_fontface" : 0,
						"default_fontname" : "Arial",
						"gridonopen" : 1,
						"gridsize" : [ 15.0, 15.0 ],
						"gridsnaponopen" : 1,
						"objectsnaponopen" : 1,
						"statusbarvisible" : 2,
						"toolbarvisible" : 1,
						"lefttoolbarpinned" : 0,
						"toptoolbarpinned" : 0,
						"righttoolbarpinned" : 0,
						"bottomtoolbarpinned" : 0,
						"toolbars_unpinned_last_save" : 0,
						"tallnewobj" : 0,
						"boxanimatetime" : 200,
						"enablehscroll" : 1,
						"enablevscroll" : 1,
						"devicewidth" : 0.0,
						"description" : "",
						"digest" : "",
						"tags" : "",
						"style" : "",
						"subpatcher_template" : "magfoto-2019",
						"boxes" : [ 							{
								"box" : 								{
									"id" : "obj-5",
									"maxclass" : "button",
									"numinlets" : 1,
									"numoutlets" : 1,
									"outlettype" : [ "bang" ],
									"parameter_enable" : 0,
									"patching_rect" : [ 175.0, 59.0, 24.0, 24.0 ]
								}

							}
, 							{
								"box" : 								{
									"id" : "obj-15",
									"maxclass" : "newobj",
									"numinlets" : 1,
									"numoutlets" : 2,
									"outlettype" : [ "jit_gl_texture", "" ],
									"patching_rect" : [ 56.0, 194.0, 70.0, 22.0 ],
									"text" : "jit.gl.texture"
								}

							}
, 							{
								"box" : 								{
									"id" : "obj-13",
									"maxclass" : "newobj",
									"numinlets" : 1,
									"numoutlets" : 2,
									"outlettype" : [ "jit_matrix", "" ],
									"patching_rect" : [ 19.0, 272.0, 431.0, 22.0 ],
									"text" : "jit.gl.model scene @file Tent+Outdoor_table.obj @position 2.2 0.1 0 @scale 0.1"
								}

							}
, 							{
								"box" : 								{
									"attr" : "enable",
									"id" : "obj-16",
									"maxclass" : "attrui",
									"numinlets" : 1,
									"numoutlets" : 1,
									"outlettype" : [ "" ],
									"patching_rect" : [ 195.0, 228.0, 150.0, 22.0 ]
								}

							}
, 							{
								"box" : 								{
									"attr" : "position",
									"id" : "obj-22",
									"maxclass" : "attrui",
									"numinlets" : 1,
									"numoutlets" : 1,
									"outlettype" : [ "" ],
									"patching_rect" : [ 19.0, 19.0, 256.0, 22.0 ]
								}

							}
 ],
						"lines" : [ 							{
								"patchline" : 								{
									"destination" : [ "obj-13", 0 ],
									"source" : [ "obj-15", 0 ]
								}

							}
, 							{
								"patchline" : 								{
									"destination" : [ "obj-13", 0 ],
									"source" : [ "obj-16", 0 ]
								}

							}
, 							{
								"patchline" : 								{
									"destination" : [ "obj-13", 0 ],
									"source" : [ "obj-22", 0 ]
								}

							}
 ],
						"accentcolor" : [ 0.498039215686275, 0.498039215686275, 0.498039215686275, 1.0 ],
						"textcolor" : [ 0.858823529411765, 0.858823529411765, 0.858823529411765, 1.0 ],
						"patchlinecolor" : [ 0.701960784313725, 0.701960784313725, 0.701960784313725, 1.0 ],
						"bgcolor" : [ 0.192156862745098, 0.192156862745098, 0.192156862745098, 1.0 ],
						"editing_bgcolor" : [ 0.356862745098039, 0.356862745098039, 0.356862745098039, 1.0 ],
						"stripecolor" : [ 0.698039215686274, 0.698039215686274, 0.698039215686274, 1.0 ]
					}
,
					"patching_rect" : [ 258.0, 87.0, 124.0, 22.0 ],
					"saved_object_attributes" : 					{
						"accentcolor" : [ 0.498039215686275, 0.498039215686275, 0.498039215686275, 1.0 ],
						"description" : "",
						"digest" : "",
						"editing_bgcolor" : [ 0.356862745098039, 0.356862745098039, 0.356862745098039, 1.0 ],
						"globalpatchername" : "",
						"locked_bgcolor" : [ 0.192156862745098, 0.192156862745098, 0.192156862745098, 1.0 ],
						"patchlinecolor" : [ 0.701960784313725, 0.701960784313725, 0.701960784313725, 1.0 ],
						"stripecolor" : [ 0.698039215686274, 0.698039215686274, 0.698039215686274, 1.0 ],
						"tags" : "",
						"textcolor" : [ 0.858823529411765, 0.858823529411765, 0.858823529411765, 1.0 ]
					}
,
					"text" : "p Tent+Outdoor_table"
				}

			}
, 			{
				"box" : 				{
					"id" : "obj-28",
					"maxclass" : "newobj",
					"numinlets" : 0,
					"numoutlets" : 0,
					"patcher" : 					{
						"fileversion" : 1,
						"appversion" : 						{
							"major" : 8,
							"minor" : 1,
							"revision" : 1,
							"architecture" : "x64",
							"modernui" : 1
						}
,
						"classnamespace" : "box",
						"rect" : [ 260.0, 286.0, 564.0, 424.0 ],
						"bglocked" : 0,
						"openinpresentation" : 0,
						"default_fontsize" : 12.0,
						"default_fontface" : 0,
						"default_fontname" : "Arial",
						"gridonopen" : 1,
						"gridsize" : [ 15.0, 15.0 ],
						"gridsnaponopen" : 1,
						"objectsnaponopen" : 1,
						"statusbarvisible" : 2,
						"toolbarvisible" : 1,
						"lefttoolbarpinned" : 0,
						"toptoolbarpinned" : 0,
						"righttoolbarpinned" : 0,
						"bottomtoolbarpinned" : 0,
						"toolbars_unpinned_last_save" : 0,
						"tallnewobj" : 0,
						"boxanimatetime" : 200,
						"enablehscroll" : 1,
						"enablevscroll" : 1,
						"devicewidth" : 0.0,
						"description" : "",
						"digest" : "",
						"tags" : "",
						"style" : "",
						"subpatcher_template" : "magfoto-2019",
						"boxes" : [ 							{
								"box" : 								{
									"id" : "obj-5",
									"maxclass" : "button",
									"numinlets" : 1,
									"numoutlets" : 1,
									"outlettype" : [ "bang" ],
									"parameter_enable" : 0,
									"patching_rect" : [ 175.0, 59.0, 24.0, 24.0 ]
								}

							}
, 							{
								"box" : 								{
									"id" : "obj-15",
									"maxclass" : "newobj",
									"numinlets" : 1,
									"numoutlets" : 2,
									"outlettype" : [ "jit_gl_texture", "" ],
									"patching_rect" : [ 56.0, 194.0, 70.0, 22.0 ],
									"text" : "jit.gl.texture"
								}

							}
, 							{
								"box" : 								{
									"id" : "obj-13",
									"maxclass" : "newobj",
									"numinlets" : 1,
									"numoutlets" : 2,
									"outlettype" : [ "jit_matrix", "" ],
									"patching_rect" : [ 19.0, 272.0, 441.0, 22.0 ],
									"text" : "jit.gl.model scene @file Tent+Outdoor_table.obj @position 1.2 0.1 0.1 @scale 0.1"
								}

							}
, 							{
								"box" : 								{
									"attr" : "enable",
									"id" : "obj-16",
									"maxclass" : "attrui",
									"numinlets" : 1,
									"numoutlets" : 1,
									"outlettype" : [ "" ],
									"patching_rect" : [ 195.0, 228.0, 150.0, 22.0 ]
								}

							}
, 							{
								"box" : 								{
									"attr" : "position",
									"id" : "obj-22",
									"maxclass" : "attrui",
									"numinlets" : 1,
									"numoutlets" : 1,
									"outlettype" : [ "" ],
									"patching_rect" : [ 19.0, 19.0, 256.0, 22.0 ]
								}

							}
 ],
						"lines" : [ 							{
								"patchline" : 								{
									"destination" : [ "obj-13", 0 ],
									"source" : [ "obj-15", 0 ]
								}

							}
, 							{
								"patchline" : 								{
									"destination" : [ "obj-13", 0 ],
									"source" : [ "obj-16", 0 ]
								}

							}
, 							{
								"patchline" : 								{
									"destination" : [ "obj-13", 0 ],
									"source" : [ "obj-22", 0 ]
								}

							}
 ],
						"accentcolor" : [ 0.498039215686275, 0.498039215686275, 0.498039215686275, 1.0 ],
						"textcolor" : [ 0.858823529411765, 0.858823529411765, 0.858823529411765, 1.0 ],
						"patchlinecolor" : [ 0.701960784313725, 0.701960784313725, 0.701960784313725, 1.0 ],
						"bgcolor" : [ 0.192156862745098, 0.192156862745098, 0.192156862745098, 1.0 ],
						"editing_bgcolor" : [ 0.356862745098039, 0.356862745098039, 0.356862745098039, 1.0 ],
						"stripecolor" : [ 0.698039215686274, 0.698039215686274, 0.698039215686274, 1.0 ]
					}
,
					"patching_rect" : [ 258.0, 115.0, 124.0, 22.0 ],
					"saved_object_attributes" : 					{
						"accentcolor" : [ 0.498039215686275, 0.498039215686275, 0.498039215686275, 1.0 ],
						"description" : "",
						"digest" : "",
						"editing_bgcolor" : [ 0.356862745098039, 0.356862745098039, 0.356862745098039, 1.0 ],
						"globalpatchername" : "",
						"locked_bgcolor" : [ 0.192156862745098, 0.192156862745098, 0.192156862745098, 1.0 ],
						"patchlinecolor" : [ 0.701960784313725, 0.701960784313725, 0.701960784313725, 1.0 ],
						"stripecolor" : [ 0.698039215686274, 0.698039215686274, 0.698039215686274, 1.0 ],
						"tags" : "",
						"textcolor" : [ 0.858823529411765, 0.858823529411765, 0.858823529411765, 1.0 ]
					}
,
					"text" : "p Tent+Outdoor_table"
				}

			}
, 			{
				"box" : 				{
					"id" : "obj-27",
					"maxclass" : "newobj",
					"numinlets" : 0,
					"numoutlets" : 0,
					"patcher" : 					{
						"fileversion" : 1,
						"appversion" : 						{
							"major" : 8,
							"minor" : 1,
							"revision" : 1,
							"architecture" : "x64",
							"modernui" : 1
						}
,
						"classnamespace" : "box",
						"rect" : [ 260.0, 286.0, 564.0, 424.0 ],
						"bglocked" : 0,
						"openinpresentation" : 0,
						"default_fontsize" : 12.0,
						"default_fontface" : 0,
						"default_fontname" : "Arial",
						"gridonopen" : 1,
						"gridsize" : [ 15.0, 15.0 ],
						"gridsnaponopen" : 1,
						"objectsnaponopen" : 1,
						"statusbarvisible" : 2,
						"toolbarvisible" : 1,
						"lefttoolbarpinned" : 0,
						"toptoolbarpinned" : 0,
						"righttoolbarpinned" : 0,
						"bottomtoolbarpinned" : 0,
						"toolbars_unpinned_last_save" : 0,
						"tallnewobj" : 0,
						"boxanimatetime" : 200,
						"enablehscroll" : 1,
						"enablevscroll" : 1,
						"devicewidth" : 0.0,
						"description" : "",
						"digest" : "",
						"tags" : "",
						"style" : "",
						"subpatcher_template" : "magfoto-2019",
						"boxes" : [ 							{
								"box" : 								{
									"id" : "obj-5",
									"maxclass" : "button",
									"numinlets" : 1,
									"numoutlets" : 1,
									"outlettype" : [ "bang" ],
									"parameter_enable" : 0,
									"patching_rect" : [ 175.0, 59.0, 24.0, 24.0 ]
								}

							}
, 							{
								"box" : 								{
									"id" : "obj-15",
									"maxclass" : "newobj",
									"numinlets" : 1,
									"numoutlets" : 2,
									"outlettype" : [ "jit_gl_texture", "" ],
									"patching_rect" : [ 56.0, 194.0, 70.0, 22.0 ],
									"text" : "jit.gl.texture"
								}

							}
, 							{
								"box" : 								{
									"id" : "obj-13",
									"maxclass" : "newobj",
									"numinlets" : 1,
									"numoutlets" : 2,
									"outlettype" : [ "jit_matrix", "" ],
									"patching_rect" : [ 19.0, 272.0, 445.0, 22.0 ],
									"text" : "jit.gl.model scene @file Tent+Outdoor_table.obj @position 1.2 0.1 -0.1 @scale 0.1"
								}

							}
, 							{
								"box" : 								{
									"attr" : "enable",
									"id" : "obj-16",
									"maxclass" : "attrui",
									"numinlets" : 1,
									"numoutlets" : 1,
									"outlettype" : [ "" ],
									"patching_rect" : [ 195.0, 228.0, 150.0, 22.0 ]
								}

							}
, 							{
								"box" : 								{
									"attr" : "position",
									"id" : "obj-22",
									"maxclass" : "attrui",
									"numinlets" : 1,
									"numoutlets" : 1,
									"outlettype" : [ "" ],
									"patching_rect" : [ 19.0, 19.0, 256.0, 22.0 ]
								}

							}
 ],
						"lines" : [ 							{
								"patchline" : 								{
									"destination" : [ "obj-13", 0 ],
									"source" : [ "obj-15", 0 ]
								}

							}
, 							{
								"patchline" : 								{
									"destination" : [ "obj-13", 0 ],
									"source" : [ "obj-16", 0 ]
								}

							}
, 							{
								"patchline" : 								{
									"destination" : [ "obj-13", 0 ],
									"source" : [ "obj-22", 0 ]
								}

							}
 ],
						"accentcolor" : [ 0.498039215686275, 0.498039215686275, 0.498039215686275, 1.0 ],
						"textcolor" : [ 0.858823529411765, 0.858823529411765, 0.858823529411765, 1.0 ],
						"patchlinecolor" : [ 0.701960784313725, 0.701960784313725, 0.701960784313725, 1.0 ],
						"bgcolor" : [ 0.192156862745098, 0.192156862745098, 0.192156862745098, 1.0 ],
						"editing_bgcolor" : [ 0.356862745098039, 0.356862745098039, 0.356862745098039, 1.0 ],
						"stripecolor" : [ 0.698039215686274, 0.698039215686274, 0.698039215686274, 1.0 ]
					}
,
					"patching_rect" : [ 258.0, 53.0, 124.0, 22.0 ],
					"saved_object_attributes" : 					{
						"accentcolor" : [ 0.498039215686275, 0.498039215686275, 0.498039215686275, 1.0 ],
						"description" : "",
						"digest" : "",
						"editing_bgcolor" : [ 0.356862745098039, 0.356862745098039, 0.356862745098039, 1.0 ],
						"globalpatchername" : "",
						"locked_bgcolor" : [ 0.192156862745098, 0.192156862745098, 0.192156862745098, 1.0 ],
						"patchlinecolor" : [ 0.701960784313725, 0.701960784313725, 0.701960784313725, 1.0 ],
						"stripecolor" : [ 0.698039215686274, 0.698039215686274, 0.698039215686274, 1.0 ],
						"tags" : "",
						"textcolor" : [ 0.858823529411765, 0.858823529411765, 0.858823529411765, 1.0 ]
					}
,
					"text" : "p Tent+Outdoor_table"
				}

			}
, 			{
				"box" : 				{
					"id" : "obj-26",
					"maxclass" : "newobj",
					"numinlets" : 0,
					"numoutlets" : 0,
					"patcher" : 					{
						"fileversion" : 1,
						"appversion" : 						{
							"major" : 8,
							"minor" : 1,
							"revision" : 1,
							"architecture" : "x64",
							"modernui" : 1
						}
,
						"classnamespace" : "box",
						"rect" : [ 261.0, 287.0, 564.0, 424.0 ],
						"bglocked" : 0,
						"openinpresentation" : 0,
						"default_fontsize" : 12.0,
						"default_fontface" : 0,
						"default_fontname" : "Arial",
						"gridonopen" : 1,
						"gridsize" : [ 15.0, 15.0 ],
						"gridsnaponopen" : 1,
						"objectsnaponopen" : 1,
						"statusbarvisible" : 2,
						"toolbarvisible" : 1,
						"lefttoolbarpinned" : 0,
						"toptoolbarpinned" : 0,
						"righttoolbarpinned" : 0,
						"bottomtoolbarpinned" : 0,
						"toolbars_unpinned_last_save" : 0,
						"tallnewobj" : 0,
						"boxanimatetime" : 200,
						"enablehscroll" : 1,
						"enablevscroll" : 1,
						"devicewidth" : 0.0,
						"description" : "",
						"digest" : "",
						"tags" : "",
						"style" : "",
						"subpatcher_template" : "magfoto-2019",
						"boxes" : [ 							{
								"box" : 								{
									"id" : "obj-5",
									"maxclass" : "button",
									"numinlets" : 1,
									"numoutlets" : 1,
									"outlettype" : [ "bang" ],
									"parameter_enable" : 0,
									"patching_rect" : [ 175.0, 59.0, 24.0, 24.0 ]
								}

							}
, 							{
								"box" : 								{
									"id" : "obj-15",
									"maxclass" : "newobj",
									"numinlets" : 1,
									"numoutlets" : 2,
									"outlettype" : [ "jit_gl_texture", "" ],
									"patching_rect" : [ 56.0, 194.0, 70.0, 22.0 ],
									"text" : "jit.gl.texture"
								}

							}
, 							{
								"box" : 								{
									"id" : "obj-13",
									"maxclass" : "newobj",
									"numinlets" : 1,
									"numoutlets" : 2,
									"outlettype" : [ "jit_matrix", "" ],
									"patching_rect" : [ 19.0, 272.0, 421.0, 22.0 ],
									"text" : "jit.gl.model scene @file Tent+Outdoor_table.obj @position 1 0.1 0 @scale 0.1"
								}

							}
, 							{
								"box" : 								{
									"attr" : "enable",
									"id" : "obj-16",
									"maxclass" : "attrui",
									"numinlets" : 1,
									"numoutlets" : 1,
									"outlettype" : [ "" ],
									"patching_rect" : [ 195.0, 228.0, 150.0, 22.0 ]
								}

							}
, 							{
								"box" : 								{
									"attr" : "position",
									"id" : "obj-22",
									"maxclass" : "attrui",
									"numinlets" : 1,
									"numoutlets" : 1,
									"outlettype" : [ "" ],
									"patching_rect" : [ 19.0, 19.0, 256.0, 22.0 ]
								}

							}
 ],
						"lines" : [ 							{
								"patchline" : 								{
									"destination" : [ "obj-13", 0 ],
									"source" : [ "obj-15", 0 ]
								}

							}
, 							{
								"patchline" : 								{
									"destination" : [ "obj-13", 0 ],
									"source" : [ "obj-16", 0 ]
								}

							}
, 							{
								"patchline" : 								{
									"destination" : [ "obj-13", 0 ],
									"source" : [ "obj-22", 0 ]
								}

							}
 ],
						"accentcolor" : [ 0.498039215686275, 0.498039215686275, 0.498039215686275, 1.0 ],
						"textcolor" : [ 0.858823529411765, 0.858823529411765, 0.858823529411765, 1.0 ],
						"patchlinecolor" : [ 0.701960784313725, 0.701960784313725, 0.701960784313725, 1.0 ],
						"bgcolor" : [ 0.192156862745098, 0.192156862745098, 0.192156862745098, 1.0 ],
						"editing_bgcolor" : [ 0.356862745098039, 0.356862745098039, 0.356862745098039, 1.0 ],
						"stripecolor" : [ 0.698039215686274, 0.698039215686274, 0.698039215686274, 1.0 ]
					}
,
					"patching_rect" : [ 385.5, 87.0, 124.0, 22.0 ],
					"saved_object_attributes" : 					{
						"accentcolor" : [ 0.498039215686275, 0.498039215686275, 0.498039215686275, 1.0 ],
						"description" : "",
						"digest" : "",
						"editing_bgcolor" : [ 0.356862745098039, 0.356862745098039, 0.356862745098039, 1.0 ],
						"globalpatchername" : "",
						"locked_bgcolor" : [ 0.192156862745098, 0.192156862745098, 0.192156862745098, 1.0 ],
						"patchlinecolor" : [ 0.701960784313725, 0.701960784313725, 0.701960784313725, 1.0 ],
						"stripecolor" : [ 0.698039215686274, 0.698039215686274, 0.698039215686274, 1.0 ],
						"tags" : "",
						"textcolor" : [ 0.858823529411765, 0.858823529411765, 0.858823529411765, 1.0 ]
					}
,
					"text" : "p Tent+Outdoor_table"
				}

			}
, 			{
				"box" : 				{
					"id" : "obj-25",
					"maxclass" : "newobj",
					"numinlets" : 0,
					"numoutlets" : 0,
					"patcher" : 					{
						"fileversion" : 1,
						"appversion" : 						{
							"major" : 8,
							"minor" : 1,
							"revision" : 1,
							"architecture" : "x64",
							"modernui" : 1
						}
,
						"classnamespace" : "box",
						"rect" : [ 158.0, 207.0, 563.0, 592.0 ],
						"bglocked" : 0,
						"openinpresentation" : 0,
						"default_fontsize" : 12.0,
						"default_fontface" : 0,
						"default_fontname" : "Arial",
						"gridonopen" : 1,
						"gridsize" : [ 15.0, 15.0 ],
						"gridsnaponopen" : 1,
						"objectsnaponopen" : 1,
						"statusbarvisible" : 2,
						"toolbarvisible" : 1,
						"lefttoolbarpinned" : 0,
						"toptoolbarpinned" : 0,
						"righttoolbarpinned" : 0,
						"bottomtoolbarpinned" : 0,
						"toolbars_unpinned_last_save" : 0,
						"tallnewobj" : 0,
						"boxanimatetime" : 200,
						"enablehscroll" : 1,
						"enablevscroll" : 1,
						"devicewidth" : 0.0,
						"description" : "",
						"digest" : "",
						"tags" : "",
						"style" : "",
						"subpatcher_template" : "magfoto-2019",
						"boxes" : [ 							{
								"box" : 								{
									"id" : "obj-5",
									"maxclass" : "button",
									"numinlets" : 1,
									"numoutlets" : 1,
									"outlettype" : [ "bang" ],
									"parameter_enable" : 0,
									"patching_rect" : [ 175.0, 59.0, 24.0, 24.0 ]
								}

							}
, 							{
								"box" : 								{
									"id" : "obj-15",
									"maxclass" : "newobj",
									"numinlets" : 1,
									"numoutlets" : 2,
									"outlettype" : [ "jit_gl_texture", "" ],
									"patching_rect" : [ 56.0, 194.0, 70.0, 22.0 ],
									"text" : "jit.gl.texture"
								}

							}
, 							{
								"box" : 								{
									"id" : "obj-13",
									"maxclass" : "newobj",
									"numinlets" : 1,
									"numoutlets" : 2,
									"outlettype" : [ "jit_matrix", "" ],
									"patching_rect" : [ 19.0, 272.0, 371.0, 22.0 ],
									"text" : "jit.gl.model scene @file HighRise01.fbx @position -1 1 1.5 @scale 1"
								}

							}
, 							{
								"box" : 								{
									"attr" : "enable",
									"id" : "obj-16",
									"maxclass" : "attrui",
									"numinlets" : 1,
									"numoutlets" : 1,
									"outlettype" : [ "" ],
									"patching_rect" : [ 195.0, 228.0, 150.0, 22.0 ]
								}

							}
, 							{
								"box" : 								{
									"attr" : "position",
									"id" : "obj-22",
									"maxclass" : "attrui",
									"numinlets" : 1,
									"numoutlets" : 1,
									"outlettype" : [ "" ],
									"patching_rect" : [ 19.0, 19.0, 256.0, 22.0 ]
								}

							}
 ],
						"lines" : [ 							{
								"patchline" : 								{
									"destination" : [ "obj-13", 0 ],
									"source" : [ "obj-15", 0 ]
								}

							}
, 							{
								"patchline" : 								{
									"destination" : [ "obj-13", 0 ],
									"source" : [ "obj-16", 0 ]
								}

							}
, 							{
								"patchline" : 								{
									"destination" : [ "obj-13", 0 ],
									"source" : [ "obj-22", 0 ]
								}

							}
 ],
						"accentcolor" : [ 0.498039215686275, 0.498039215686275, 0.498039215686275, 1.0 ],
						"textcolor" : [ 0.858823529411765, 0.858823529411765, 0.858823529411765, 1.0 ],
						"patchlinecolor" : [ 0.701960784313725, 0.701960784313725, 0.701960784313725, 1.0 ],
						"bgcolor" : [ 0.192156862745098, 0.192156862745098, 0.192156862745098, 1.0 ],
						"editing_bgcolor" : [ 0.356862745098039, 0.356862745098039, 0.356862745098039, 1.0 ],
						"stripecolor" : [ 0.698039215686274, 0.698039215686274, 0.698039215686274, 1.0 ]
					}
,
					"patching_rect" : [ 155.0, 141.0, 81.0, 22.0 ],
					"saved_object_attributes" : 					{
						"accentcolor" : [ 0.498039215686275, 0.498039215686275, 0.498039215686275, 1.0 ],
						"description" : "",
						"digest" : "",
						"editing_bgcolor" : [ 0.356862745098039, 0.356862745098039, 0.356862745098039, 1.0 ],
						"globalpatchername" : "",
						"locked_bgcolor" : [ 0.192156862745098, 0.192156862745098, 0.192156862745098, 1.0 ],
						"patchlinecolor" : [ 0.701960784313725, 0.701960784313725, 0.701960784313725, 1.0 ],
						"stripecolor" : [ 0.698039215686274, 0.698039215686274, 0.698039215686274, 1.0 ],
						"tags" : "",
						"textcolor" : [ 0.858823529411765, 0.858823529411765, 0.858823529411765, 1.0 ]
					}
,
					"text" : "p HighRise01"
				}

			}
, 			{
				"box" : 				{
					"id" : "obj-24",
					"maxclass" : "newobj",
					"numinlets" : 0,
					"numoutlets" : 0,
					"patcher" : 					{
						"fileversion" : 1,
						"appversion" : 						{
							"major" : 8,
							"minor" : 1,
							"revision" : 1,
							"architecture" : "x64",
							"modernui" : 1
						}
,
						"classnamespace" : "box",
						"rect" : [ 158.0, 207.0, 563.0, 592.0 ],
						"bglocked" : 0,
						"openinpresentation" : 0,
						"default_fontsize" : 12.0,
						"default_fontface" : 0,
						"default_fontname" : "Arial",
						"gridonopen" : 1,
						"gridsize" : [ 15.0, 15.0 ],
						"gridsnaponopen" : 1,
						"objectsnaponopen" : 1,
						"statusbarvisible" : 2,
						"toolbarvisible" : 1,
						"lefttoolbarpinned" : 0,
						"toptoolbarpinned" : 0,
						"righttoolbarpinned" : 0,
						"bottomtoolbarpinned" : 0,
						"toolbars_unpinned_last_save" : 0,
						"tallnewobj" : 0,
						"boxanimatetime" : 200,
						"enablehscroll" : 1,
						"enablevscroll" : 1,
						"devicewidth" : 0.0,
						"description" : "",
						"digest" : "",
						"tags" : "",
						"style" : "",
						"subpatcher_template" : "magfoto-2019",
						"boxes" : [ 							{
								"box" : 								{
									"id" : "obj-5",
									"maxclass" : "button",
									"numinlets" : 1,
									"numoutlets" : 1,
									"outlettype" : [ "bang" ],
									"parameter_enable" : 0,
									"patching_rect" : [ 175.0, 59.0, 24.0, 24.0 ]
								}

							}
, 							{
								"box" : 								{
									"id" : "obj-15",
									"maxclass" : "newobj",
									"numinlets" : 1,
									"numoutlets" : 2,
									"outlettype" : [ "jit_gl_texture", "" ],
									"patching_rect" : [ 56.0, 194.0, 70.0, 22.0 ],
									"text" : "jit.gl.texture"
								}

							}
, 							{
								"box" : 								{
									"id" : "obj-13",
									"maxclass" : "newobj",
									"numinlets" : 1,
									"numoutlets" : 2,
									"outlettype" : [ "jit_matrix", "" ],
									"patching_rect" : [ 19.0, 272.0, 371.0, 22.0 ],
									"text" : "jit.gl.model scene @file HighRise01.fbx @position -1 1 0.7 @scale 1"
								}

							}
, 							{
								"box" : 								{
									"attr" : "enable",
									"id" : "obj-16",
									"maxclass" : "attrui",
									"numinlets" : 1,
									"numoutlets" : 1,
									"outlettype" : [ "" ],
									"patching_rect" : [ 195.0, 228.0, 150.0, 22.0 ]
								}

							}
, 							{
								"box" : 								{
									"attr" : "position",
									"id" : "obj-22",
									"maxclass" : "attrui",
									"numinlets" : 1,
									"numoutlets" : 1,
									"outlettype" : [ "" ],
									"patching_rect" : [ 19.0, 19.0, 256.0, 22.0 ]
								}

							}
 ],
						"lines" : [ 							{
								"patchline" : 								{
									"destination" : [ "obj-13", 0 ],
									"source" : [ "obj-15", 0 ]
								}

							}
, 							{
								"patchline" : 								{
									"destination" : [ "obj-13", 0 ],
									"source" : [ "obj-16", 0 ]
								}

							}
, 							{
								"patchline" : 								{
									"destination" : [ "obj-13", 0 ],
									"source" : [ "obj-22", 0 ]
								}

							}
 ],
						"accentcolor" : [ 0.498039215686275, 0.498039215686275, 0.498039215686275, 1.0 ],
						"textcolor" : [ 0.858823529411765, 0.858823529411765, 0.858823529411765, 1.0 ],
						"patchlinecolor" : [ 0.701960784313725, 0.701960784313725, 0.701960784313725, 1.0 ],
						"bgcolor" : [ 0.192156862745098, 0.192156862745098, 0.192156862745098, 1.0 ],
						"editing_bgcolor" : [ 0.356862745098039, 0.356862745098039, 0.356862745098039, 1.0 ],
						"stripecolor" : [ 0.698039215686274, 0.698039215686274, 0.698039215686274, 1.0 ]
					}
,
					"patching_rect" : [ 155.0, 110.0, 81.0, 22.0 ],
					"saved_object_attributes" : 					{
						"accentcolor" : [ 0.498039215686275, 0.498039215686275, 0.498039215686275, 1.0 ],
						"description" : "",
						"digest" : "",
						"editing_bgcolor" : [ 0.356862745098039, 0.356862745098039, 0.356862745098039, 1.0 ],
						"globalpatchername" : "",
						"locked_bgcolor" : [ 0.192156862745098, 0.192156862745098, 0.192156862745098, 1.0 ],
						"patchlinecolor" : [ 0.701960784313725, 0.701960784313725, 0.701960784313725, 1.0 ],
						"stripecolor" : [ 0.698039215686274, 0.698039215686274, 0.698039215686274, 1.0 ],
						"tags" : "",
						"textcolor" : [ 0.858823529411765, 0.858823529411765, 0.858823529411765, 1.0 ]
					}
,
					"text" : "p HighRise01"
				}

			}
, 			{
				"box" : 				{
					"id" : "obj-23",
					"maxclass" : "newobj",
					"numinlets" : 0,
					"numoutlets" : 0,
					"patcher" : 					{
						"fileversion" : 1,
						"appversion" : 						{
							"major" : 8,
							"minor" : 1,
							"revision" : 1,
							"architecture" : "x64",
							"modernui" : 1
						}
,
						"classnamespace" : "box",
						"rect" : [ 446.0, 334.0, 564.0, 424.0 ],
						"bglocked" : 0,
						"openinpresentation" : 0,
						"default_fontsize" : 12.0,
						"default_fontface" : 0,
						"default_fontname" : "Arial",
						"gridonopen" : 1,
						"gridsize" : [ 15.0, 15.0 ],
						"gridsnaponopen" : 1,
						"objectsnaponopen" : 1,
						"statusbarvisible" : 2,
						"toolbarvisible" : 1,
						"lefttoolbarpinned" : 0,
						"toptoolbarpinned" : 0,
						"righttoolbarpinned" : 0,
						"bottomtoolbarpinned" : 0,
						"toolbars_unpinned_last_save" : 0,
						"tallnewobj" : 0,
						"boxanimatetime" : 200,
						"enablehscroll" : 1,
						"enablevscroll" : 1,
						"devicewidth" : 0.0,
						"description" : "",
						"digest" : "",
						"tags" : "",
						"style" : "",
						"subpatcher_template" : "magfoto-2019",
						"boxes" : [ 							{
								"box" : 								{
									"id" : "obj-5",
									"maxclass" : "button",
									"numinlets" : 1,
									"numoutlets" : 1,
									"outlettype" : [ "bang" ],
									"parameter_enable" : 0,
									"patching_rect" : [ 175.0, 59.0, 24.0, 24.0 ]
								}

							}
, 							{
								"box" : 								{
									"id" : "obj-15",
									"maxclass" : "newobj",
									"numinlets" : 1,
									"numoutlets" : 2,
									"outlettype" : [ "jit_gl_texture", "" ],
									"patching_rect" : [ 56.0, 194.0, 70.0, 22.0 ],
									"text" : "jit.gl.texture"
								}

							}
, 							{
								"box" : 								{
									"id" : "obj-13",
									"maxclass" : "newobj",
									"numinlets" : 1,
									"numoutlets" : 2,
									"outlettype" : [ "jit_matrix", "" ],
									"patching_rect" : [ 19.0, 272.0, 361.0, 22.0 ],
									"text" : "jit.gl.model scene @file HighRise04.fbx @position 3 1 -1 @scale 1"
								}

							}
, 							{
								"box" : 								{
									"attr" : "enable",
									"id" : "obj-16",
									"maxclass" : "attrui",
									"numinlets" : 1,
									"numoutlets" : 1,
									"outlettype" : [ "" ],
									"patching_rect" : [ 195.0, 228.0, 150.0, 22.0 ]
								}

							}
, 							{
								"box" : 								{
									"attr" : "position",
									"id" : "obj-22",
									"maxclass" : "attrui",
									"numinlets" : 1,
									"numoutlets" : 1,
									"outlettype" : [ "" ],
									"patching_rect" : [ 19.0, 19.0, 256.0, 22.0 ]
								}

							}
 ],
						"lines" : [ 							{
								"patchline" : 								{
									"destination" : [ "obj-13", 0 ],
									"source" : [ "obj-15", 0 ]
								}

							}
, 							{
								"patchline" : 								{
									"destination" : [ "obj-13", 0 ],
									"source" : [ "obj-16", 0 ]
								}

							}
, 							{
								"patchline" : 								{
									"destination" : [ "obj-13", 0 ],
									"source" : [ "obj-22", 0 ]
								}

							}
 ],
						"accentcolor" : [ 0.498039215686275, 0.498039215686275, 0.498039215686275, 1.0 ],
						"textcolor" : [ 0.858823529411765, 0.858823529411765, 0.858823529411765, 1.0 ],
						"patchlinecolor" : [ 0.701960784313725, 0.701960784313725, 0.701960784313725, 1.0 ],
						"bgcolor" : [ 0.192156862745098, 0.192156862745098, 0.192156862745098, 1.0 ],
						"editing_bgcolor" : [ 0.356862745098039, 0.356862745098039, 0.356862745098039, 1.0 ],
						"stripecolor" : [ 0.698039215686274, 0.698039215686274, 0.698039215686274, 1.0 ]
					}
,
					"patching_rect" : [ 622.5, 121.0, 81.0, 22.0 ],
					"saved_object_attributes" : 					{
						"accentcolor" : [ 0.498039215686275, 0.498039215686275, 0.498039215686275, 1.0 ],
						"description" : "",
						"digest" : "",
						"editing_bgcolor" : [ 0.356862745098039, 0.356862745098039, 0.356862745098039, 1.0 ],
						"globalpatchername" : "",
						"locked_bgcolor" : [ 0.192156862745098, 0.192156862745098, 0.192156862745098, 1.0 ],
						"patchlinecolor" : [ 0.701960784313725, 0.701960784313725, 0.701960784313725, 1.0 ],
						"stripecolor" : [ 0.698039215686274, 0.698039215686274, 0.698039215686274, 1.0 ],
						"tags" : "",
						"textcolor" : [ 0.858823529411765, 0.858823529411765, 0.858823529411765, 1.0 ]
					}
,
					"text" : "p HighRise04"
				}

			}
, 			{
				"box" : 				{
					"id" : "obj-22",
					"maxclass" : "newobj",
					"numinlets" : 0,
					"numoutlets" : 0,
					"patcher" : 					{
						"fileversion" : 1,
						"appversion" : 						{
							"major" : 8,
							"minor" : 1,
							"revision" : 1,
							"architecture" : "x64",
							"modernui" : 1
						}
,
						"classnamespace" : "box",
						"rect" : [ 969.0, 434.0, 564.0, 424.0 ],
						"bglocked" : 0,
						"openinpresentation" : 0,
						"default_fontsize" : 12.0,
						"default_fontface" : 0,
						"default_fontname" : "Arial",
						"gridonopen" : 1,
						"gridsize" : [ 15.0, 15.0 ],
						"gridsnaponopen" : 1,
						"objectsnaponopen" : 1,
						"statusbarvisible" : 2,
						"toolbarvisible" : 1,
						"lefttoolbarpinned" : 0,
						"toptoolbarpinned" : 0,
						"righttoolbarpinned" : 0,
						"bottomtoolbarpinned" : 0,
						"toolbars_unpinned_last_save" : 0,
						"tallnewobj" : 0,
						"boxanimatetime" : 200,
						"enablehscroll" : 1,
						"enablevscroll" : 1,
						"devicewidth" : 0.0,
						"description" : "",
						"digest" : "",
						"tags" : "",
						"style" : "",
						"subpatcher_template" : "magfoto-2019",
						"boxes" : [ 							{
								"box" : 								{
									"id" : "obj-5",
									"maxclass" : "button",
									"numinlets" : 1,
									"numoutlets" : 1,
									"outlettype" : [ "bang" ],
									"parameter_enable" : 0,
									"patching_rect" : [ 175.0, 59.0, 24.0, 24.0 ]
								}

							}
, 							{
								"box" : 								{
									"id" : "obj-15",
									"maxclass" : "newobj",
									"numinlets" : 1,
									"numoutlets" : 2,
									"outlettype" : [ "jit_gl_texture", "" ],
									"patching_rect" : [ 56.0, 194.0, 70.0, 22.0 ],
									"text" : "jit.gl.texture"
								}

							}
, 							{
								"box" : 								{
									"id" : "obj-13",
									"maxclass" : "newobj",
									"numinlets" : 1,
									"numoutlets" : 2,
									"outlettype" : [ "jit_matrix", "" ],
									"patching_rect" : [ 19.0, 272.0, 357.0, 22.0 ],
									"text" : "jit.gl.model scene @file HighRise04.fbx @position 3 1 1 @scale 1"
								}

							}
, 							{
								"box" : 								{
									"attr" : "enable",
									"id" : "obj-16",
									"maxclass" : "attrui",
									"numinlets" : 1,
									"numoutlets" : 1,
									"outlettype" : [ "" ],
									"patching_rect" : [ 195.0, 228.0, 150.0, 22.0 ]
								}

							}
, 							{
								"box" : 								{
									"attr" : "position",
									"id" : "obj-22",
									"maxclass" : "attrui",
									"numinlets" : 1,
									"numoutlets" : 1,
									"outlettype" : [ "" ],
									"patching_rect" : [ 19.0, 19.0, 256.0, 22.0 ]
								}

							}
 ],
						"lines" : [ 							{
								"patchline" : 								{
									"destination" : [ "obj-13", 0 ],
									"source" : [ "obj-15", 0 ]
								}

							}
, 							{
								"patchline" : 								{
									"destination" : [ "obj-13", 0 ],
									"source" : [ "obj-16", 0 ]
								}

							}
, 							{
								"patchline" : 								{
									"destination" : [ "obj-13", 0 ],
									"source" : [ "obj-22", 0 ]
								}

							}
 ],
						"accentcolor" : [ 0.498039215686275, 0.498039215686275, 0.498039215686275, 1.0 ],
						"textcolor" : [ 0.858823529411765, 0.858823529411765, 0.858823529411765, 1.0 ],
						"patchlinecolor" : [ 0.701960784313725, 0.701960784313725, 0.701960784313725, 1.0 ],
						"bgcolor" : [ 0.192156862745098, 0.192156862745098, 0.192156862745098, 1.0 ],
						"editing_bgcolor" : [ 0.356862745098039, 0.356862745098039, 0.356862745098039, 1.0 ],
						"stripecolor" : [ 0.698039215686274, 0.698039215686274, 0.698039215686274, 1.0 ]
					}
,
					"patching_rect" : [ 622.5, 81.0, 81.0, 22.0 ],
					"saved_object_attributes" : 					{
						"accentcolor" : [ 0.498039215686275, 0.498039215686275, 0.498039215686275, 1.0 ],
						"description" : "",
						"digest" : "",
						"editing_bgcolor" : [ 0.356862745098039, 0.356862745098039, 0.356862745098039, 1.0 ],
						"globalpatchername" : "",
						"locked_bgcolor" : [ 0.192156862745098, 0.192156862745098, 0.192156862745098, 1.0 ],
						"patchlinecolor" : [ 0.701960784313725, 0.701960784313725, 0.701960784313725, 1.0 ],
						"stripecolor" : [ 0.698039215686274, 0.698039215686274, 0.698039215686274, 1.0 ],
						"tags" : "",
						"textcolor" : [ 0.858823529411765, 0.858823529411765, 0.858823529411765, 1.0 ]
					}
,
					"text" : "p HighRise04"
				}

			}
, 			{
				"box" : 				{
					"id" : "obj-21",
					"maxclass" : "newobj",
					"numinlets" : 0,
					"numoutlets" : 0,
					"patcher" : 					{
						"fileversion" : 1,
						"appversion" : 						{
							"major" : 8,
							"minor" : 1,
							"revision" : 1,
							"architecture" : "x64",
							"modernui" : 1
						}
,
						"classnamespace" : "box",
						"rect" : [ 554.0, 654.0, 563.0, 423.0 ],
						"bglocked" : 0,
						"openinpresentation" : 0,
						"default_fontsize" : 12.0,
						"default_fontface" : 0,
						"default_fontname" : "Arial",
						"gridonopen" : 1,
						"gridsize" : [ 15.0, 15.0 ],
						"gridsnaponopen" : 1,
						"objectsnaponopen" : 1,
						"statusbarvisible" : 2,
						"toolbarvisible" : 1,
						"lefttoolbarpinned" : 0,
						"toptoolbarpinned" : 0,
						"righttoolbarpinned" : 0,
						"bottomtoolbarpinned" : 0,
						"toolbars_unpinned_last_save" : 0,
						"tallnewobj" : 0,
						"boxanimatetime" : 200,
						"enablehscroll" : 1,
						"enablevscroll" : 1,
						"devicewidth" : 0.0,
						"description" : "",
						"digest" : "",
						"tags" : "",
						"style" : "",
						"subpatcher_template" : "magfoto-2019",
						"boxes" : [ 							{
								"box" : 								{
									"id" : "obj-5",
									"maxclass" : "button",
									"numinlets" : 1,
									"numoutlets" : 1,
									"outlettype" : [ "bang" ],
									"parameter_enable" : 0,
									"patching_rect" : [ 175.0, 59.0, 24.0, 24.0 ]
								}

							}
, 							{
								"box" : 								{
									"id" : "obj-15",
									"maxclass" : "newobj",
									"numinlets" : 1,
									"numoutlets" : 2,
									"outlettype" : [ "jit_gl_texture", "" ],
									"patching_rect" : [ 56.0, 194.0, 70.0, 22.0 ],
									"text" : "jit.gl.texture"
								}

							}
, 							{
								"box" : 								{
									"id" : "obj-13",
									"maxclass" : "newobj",
									"numinlets" : 1,
									"numoutlets" : 2,
									"outlettype" : [ "jit_matrix", "" ],
									"patching_rect" : [ 19.0, 272.0, 386.0, 22.0 ],
									"text" : "jit.gl.model scene @file SpiralBuilding01.fbx @position -3 1 2 @scale 1"
								}

							}
, 							{
								"box" : 								{
									"attr" : "enable",
									"id" : "obj-16",
									"maxclass" : "attrui",
									"numinlets" : 1,
									"numoutlets" : 1,
									"outlettype" : [ "" ],
									"patching_rect" : [ 195.0, 228.0, 150.0, 22.0 ]
								}

							}
, 							{
								"box" : 								{
									"attr" : "position",
									"id" : "obj-22",
									"maxclass" : "attrui",
									"numinlets" : 1,
									"numoutlets" : 1,
									"outlettype" : [ "" ],
									"patching_rect" : [ 19.0, 19.0, 256.0, 22.0 ]
								}

							}
 ],
						"lines" : [ 							{
								"patchline" : 								{
									"destination" : [ "obj-13", 0 ],
									"source" : [ "obj-15", 0 ]
								}

							}
, 							{
								"patchline" : 								{
									"destination" : [ "obj-13", 0 ],
									"source" : [ "obj-16", 0 ]
								}

							}
, 							{
								"patchline" : 								{
									"destination" : [ "obj-13", 0 ],
									"source" : [ "obj-22", 0 ]
								}

							}
 ],
						"accentcolor" : [ 0.498039215686275, 0.498039215686275, 0.498039215686275, 1.0 ],
						"textcolor" : [ 0.858823529411765, 0.858823529411765, 0.858823529411765, 1.0 ],
						"patchlinecolor" : [ 0.701960784313725, 0.701960784313725, 0.701960784313725, 1.0 ],
						"bgcolor" : [ 0.192156862745098, 0.192156862745098, 0.192156862745098, 1.0 ],
						"editing_bgcolor" : [ 0.356862745098039, 0.356862745098039, 0.356862745098039, 1.0 ],
						"stripecolor" : [ 0.698039215686274, 0.698039215686274, 0.698039215686274, 1.0 ]
					}
,
					"patching_rect" : [ 31.5, 137.0, 105.0, 22.0 ],
					"saved_object_attributes" : 					{
						"accentcolor" : [ 0.498039215686275, 0.498039215686275, 0.498039215686275, 1.0 ],
						"description" : "",
						"digest" : "",
						"editing_bgcolor" : [ 0.356862745098039, 0.356862745098039, 0.356862745098039, 1.0 ],
						"globalpatchername" : "",
						"locked_bgcolor" : [ 0.192156862745098, 0.192156862745098, 0.192156862745098, 1.0 ],
						"patchlinecolor" : [ 0.701960784313725, 0.701960784313725, 0.701960784313725, 1.0 ],
						"stripecolor" : [ 0.698039215686274, 0.698039215686274, 0.698039215686274, 1.0 ],
						"tags" : "",
						"textcolor" : [ 0.858823529411765, 0.858823529411765, 0.858823529411765, 1.0 ]
					}
,
					"text" : "p SpiralBuilding01"
				}

			}
, 			{
				"box" : 				{
					"id" : "obj-19",
					"maxclass" : "newobj",
					"numinlets" : 0,
					"numoutlets" : 0,
					"patcher" : 					{
						"fileversion" : 1,
						"appversion" : 						{
							"major" : 8,
							"minor" : 1,
							"revision" : 1,
							"architecture" : "x64",
							"modernui" : 1
						}
,
						"classnamespace" : "box",
						"rect" : [ 433.0, 271.0, 563.0, 423.0 ],
						"bglocked" : 0,
						"openinpresentation" : 0,
						"default_fontsize" : 12.0,
						"default_fontface" : 0,
						"default_fontname" : "Arial",
						"gridonopen" : 1,
						"gridsize" : [ 15.0, 15.0 ],
						"gridsnaponopen" : 1,
						"objectsnaponopen" : 1,
						"statusbarvisible" : 2,
						"toolbarvisible" : 1,
						"lefttoolbarpinned" : 0,
						"toptoolbarpinned" : 0,
						"righttoolbarpinned" : 0,
						"bottomtoolbarpinned" : 0,
						"toolbars_unpinned_last_save" : 0,
						"tallnewobj" : 0,
						"boxanimatetime" : 200,
						"enablehscroll" : 1,
						"enablevscroll" : 1,
						"devicewidth" : 0.0,
						"description" : "",
						"digest" : "",
						"tags" : "",
						"style" : "",
						"subpatcher_template" : "magfoto-2019",
						"boxes" : [ 							{
								"box" : 								{
									"id" : "obj-5",
									"maxclass" : "button",
									"numinlets" : 1,
									"numoutlets" : 1,
									"outlettype" : [ "bang" ],
									"parameter_enable" : 0,
									"patching_rect" : [ 175.0, 59.0, 24.0, 24.0 ]
								}

							}
, 							{
								"box" : 								{
									"id" : "obj-15",
									"maxclass" : "newobj",
									"numinlets" : 1,
									"numoutlets" : 2,
									"outlettype" : [ "jit_gl_texture", "" ],
									"patching_rect" : [ 56.0, 194.0, 70.0, 22.0 ],
									"text" : "jit.gl.texture"
								}

							}
, 							{
								"box" : 								{
									"id" : "obj-13",
									"maxclass" : "newobj",
									"numinlets" : 1,
									"numoutlets" : 2,
									"outlettype" : [ "jit_matrix", "" ],
									"patching_rect" : [ 19.0, 272.0, 357.0, 22.0 ],
									"text" : "jit.gl.model scene @file OldBuilding.fbx @position 2 1 0 @scale 1"
								}

							}
, 							{
								"box" : 								{
									"attr" : "enable",
									"id" : "obj-16",
									"maxclass" : "attrui",
									"numinlets" : 1,
									"numoutlets" : 1,
									"outlettype" : [ "" ],
									"patching_rect" : [ 195.0, 228.0, 150.0, 22.0 ]
								}

							}
, 							{
								"box" : 								{
									"attr" : "position",
									"id" : "obj-22",
									"maxclass" : "attrui",
									"numinlets" : 1,
									"numoutlets" : 1,
									"outlettype" : [ "" ],
									"patching_rect" : [ 19.0, 19.0, 256.0, 22.0 ]
								}

							}
 ],
						"lines" : [ 							{
								"patchline" : 								{
									"destination" : [ "obj-13", 0 ],
									"source" : [ "obj-15", 0 ]
								}

							}
, 							{
								"patchline" : 								{
									"destination" : [ "obj-13", 0 ],
									"source" : [ "obj-16", 0 ]
								}

							}
, 							{
								"patchline" : 								{
									"destination" : [ "obj-13", 0 ],
									"source" : [ "obj-22", 0 ]
								}

							}
 ],
						"accentcolor" : [ 0.498039215686275, 0.498039215686275, 0.498039215686275, 1.0 ],
						"textcolor" : [ 0.858823529411765, 0.858823529411765, 0.858823529411765, 1.0 ],
						"patchlinecolor" : [ 0.701960784313725, 0.701960784313725, 0.701960784313725, 1.0 ],
						"bgcolor" : [ 0.192156862745098, 0.192156862745098, 0.192156862745098, 1.0 ],
						"editing_bgcolor" : [ 0.356862745098039, 0.356862745098039, 0.356862745098039, 1.0 ],
						"stripecolor" : [ 0.698039215686274, 0.698039215686274, 0.698039215686274, 1.0 ]
					}
,
					"patching_rect" : [ 514.5, 87.0, 80.0, 22.0 ],
					"saved_object_attributes" : 					{
						"accentcolor" : [ 0.498039215686275, 0.498039215686275, 0.498039215686275, 1.0 ],
						"description" : "",
						"digest" : "",
						"editing_bgcolor" : [ 0.356862745098039, 0.356862745098039, 0.356862745098039, 1.0 ],
						"globalpatchername" : "",
						"locked_bgcolor" : [ 0.192156862745098, 0.192156862745098, 0.192156862745098, 1.0 ],
						"patchlinecolor" : [ 0.701960784313725, 0.701960784313725, 0.701960784313725, 1.0 ],
						"stripecolor" : [ 0.698039215686274, 0.698039215686274, 0.698039215686274, 1.0 ],
						"tags" : "",
						"textcolor" : [ 0.858823529411765, 0.858823529411765, 0.858823529411765, 1.0 ]
					}
,
					"text" : "p OldBuilding"
				}

			}
, 			{
				"box" : 				{
					"id" : "obj-18",
					"maxclass" : "newobj",
					"numinlets" : 0,
					"numoutlets" : 0,
					"patcher" : 					{
						"fileversion" : 1,
						"appversion" : 						{
							"major" : 8,
							"minor" : 1,
							"revision" : 1,
							"architecture" : "x64",
							"modernui" : 1
						}
,
						"classnamespace" : "box",
						"rect" : [ 641.0, 203.0, 563.0, 423.0 ],
						"bglocked" : 0,
						"openinpresentation" : 0,
						"default_fontsize" : 12.0,
						"default_fontface" : 0,
						"default_fontname" : "Arial",
						"gridonopen" : 1,
						"gridsize" : [ 15.0, 15.0 ],
						"gridsnaponopen" : 1,
						"objectsnaponopen" : 1,
						"statusbarvisible" : 2,
						"toolbarvisible" : 1,
						"lefttoolbarpinned" : 0,
						"toptoolbarpinned" : 0,
						"righttoolbarpinned" : 0,
						"bottomtoolbarpinned" : 0,
						"toolbars_unpinned_last_save" : 0,
						"tallnewobj" : 0,
						"boxanimatetime" : 200,
						"enablehscroll" : 1,
						"enablevscroll" : 1,
						"devicewidth" : 0.0,
						"description" : "",
						"digest" : "",
						"tags" : "",
						"style" : "",
						"subpatcher_template" : "magfoto-2019",
						"boxes" : [ 							{
								"box" : 								{
									"autofit" : 1,
									"forceaspect" : 1,
									"id" : "obj-1",
									"maxclass" : "fpic",
									"numinlets" : 1,
									"numoutlets" : 1,
									"outlettype" : [ "jit_matrix" ],
									"patching_rect" : [ 141.0, 101.0, 100.0, 97.65625 ],
									"pic" : "C:/Users/sunwu/Downloads/Buildings-20191128T193557Z-001/Buildings/HighRise05.jpg"
								}

							}
, 							{
								"box" : 								{
									"id" : "obj-5",
									"maxclass" : "button",
									"numinlets" : 1,
									"numoutlets" : 1,
									"outlettype" : [ "bang" ],
									"parameter_enable" : 0,
									"patching_rect" : [ 175.0, 59.0, 24.0, 24.0 ]
								}

							}
, 							{
								"box" : 								{
									"id" : "obj-15",
									"maxclass" : "newobj",
									"numinlets" : 1,
									"numoutlets" : 2,
									"outlettype" : [ "jit_gl_texture", "" ],
									"patching_rect" : [ 56.0, 194.0, 70.0, 22.0 ],
									"text" : "jit.gl.texture"
								}

							}
, 							{
								"box" : 								{
									"id" : "obj-13",
									"maxclass" : "newobj",
									"numinlets" : 1,
									"numoutlets" : 2,
									"outlettype" : [ "jit_matrix", "" ],
									"patching_rect" : [ 19.0, 272.0, 361.0, 22.0 ],
									"text" : "jit.gl.model scene @file HighRise02.fbx @position -3 1 0 @scale 1"
								}

							}
, 							{
								"box" : 								{
									"attr" : "enable",
									"id" : "obj-16",
									"maxclass" : "attrui",
									"numinlets" : 1,
									"numoutlets" : 1,
									"outlettype" : [ "" ],
									"patching_rect" : [ 195.0, 228.0, 150.0, 22.0 ]
								}

							}
, 							{
								"box" : 								{
									"attr" : "position",
									"id" : "obj-22",
									"maxclass" : "attrui",
									"numinlets" : 1,
									"numoutlets" : 1,
									"outlettype" : [ "" ],
									"patching_rect" : [ 19.0, 19.0, 256.0, 22.0 ]
								}

							}
 ],
						"lines" : [ 							{
								"patchline" : 								{
									"destination" : [ "obj-15", 0 ],
									"source" : [ "obj-1", 0 ]
								}

							}
, 							{
								"patchline" : 								{
									"destination" : [ "obj-13", 0 ],
									"source" : [ "obj-15", 0 ]
								}

							}
, 							{
								"patchline" : 								{
									"destination" : [ "obj-13", 0 ],
									"source" : [ "obj-16", 0 ]
								}

							}
, 							{
								"patchline" : 								{
									"destination" : [ "obj-13", 0 ],
									"source" : [ "obj-22", 0 ]
								}

							}
, 							{
								"patchline" : 								{
									"destination" : [ "obj-1", 0 ],
									"source" : [ "obj-5", 0 ]
								}

							}
 ],
						"accentcolor" : [ 0.498039215686275, 0.498039215686275, 0.498039215686275, 1.0 ],
						"textcolor" : [ 0.858823529411765, 0.858823529411765, 0.858823529411765, 1.0 ],
						"patchlinecolor" : [ 0.701960784313725, 0.701960784313725, 0.701960784313725, 1.0 ],
						"bgcolor" : [ 0.192156862745098, 0.192156862745098, 0.192156862745098, 1.0 ],
						"editing_bgcolor" : [ 0.356862745098039, 0.356862745098039, 0.356862745098039, 1.0 ],
						"stripecolor" : [ 0.698039215686274, 0.698039215686274, 0.698039215686274, 1.0 ]
					}
,
					"patching_rect" : [ 514.0, 40.0, 81.0, 22.0 ],
					"saved_object_attributes" : 					{
						"accentcolor" : [ 0.498039215686275, 0.498039215686275, 0.498039215686275, 1.0 ],
						"description" : "",
						"digest" : "",
						"editing_bgcolor" : [ 0.356862745098039, 0.356862745098039, 0.356862745098039, 1.0 ],
						"globalpatchername" : "",
						"locked_bgcolor" : [ 0.192156862745098, 0.192156862745098, 0.192156862745098, 1.0 ],
						"patchlinecolor" : [ 0.701960784313725, 0.701960784313725, 0.701960784313725, 1.0 ],
						"stripecolor" : [ 0.698039215686274, 0.698039215686274, 0.698039215686274, 1.0 ],
						"tags" : "",
						"textcolor" : [ 0.858823529411765, 0.858823529411765, 0.858823529411765, 1.0 ]
					}
,
					"text" : "p HighRise02"
				}

			}
, 			{
				"box" : 				{
					"id" : "obj-16",
					"maxclass" : "newobj",
					"numinlets" : 0,
					"numoutlets" : 0,
					"patcher" : 					{
						"fileversion" : 1,
						"appversion" : 						{
							"major" : 8,
							"minor" : 1,
							"revision" : 1,
							"architecture" : "x64",
							"modernui" : 1
						}
,
						"classnamespace" : "box",
						"rect" : [ 447.0, 334.0, 564.0, 423.0 ],
						"bglocked" : 0,
						"openinpresentation" : 0,
						"default_fontsize" : 12.0,
						"default_fontface" : 0,
						"default_fontname" : "Arial",
						"gridonopen" : 1,
						"gridsize" : [ 15.0, 15.0 ],
						"gridsnaponopen" : 1,
						"objectsnaponopen" : 1,
						"statusbarvisible" : 2,
						"toolbarvisible" : 1,
						"lefttoolbarpinned" : 0,
						"toptoolbarpinned" : 0,
						"righttoolbarpinned" : 0,
						"bottomtoolbarpinned" : 0,
						"toolbars_unpinned_last_save" : 0,
						"tallnewobj" : 0,
						"boxanimatetime" : 200,
						"enablehscroll" : 1,
						"enablevscroll" : 1,
						"devicewidth" : 0.0,
						"description" : "",
						"digest" : "",
						"tags" : "",
						"style" : "",
						"subpatcher_template" : "magfoto-2019",
						"boxes" : [ 							{
								"box" : 								{
									"id" : "obj-5",
									"maxclass" : "button",
									"numinlets" : 1,
									"numoutlets" : 1,
									"outlettype" : [ "bang" ],
									"parameter_enable" : 0,
									"patching_rect" : [ 175.0, 59.0, 24.0, 24.0 ]
								}

							}
, 							{
								"box" : 								{
									"id" : "obj-15",
									"maxclass" : "newobj",
									"numinlets" : 1,
									"numoutlets" : 2,
									"outlettype" : [ "jit_gl_texture", "" ],
									"patching_rect" : [ 56.0, 194.0, 70.0, 22.0 ],
									"text" : "jit.gl.texture"
								}

							}
, 							{
								"box" : 								{
									"id" : "obj-13",
									"maxclass" : "newobj",
									"numinlets" : 1,
									"numoutlets" : 2,
									"outlettype" : [ "jit_matrix", "" ],
									"patching_rect" : [ 19.0, 272.0, 357.0, 22.0 ],
									"text" : "jit.gl.model scene @file HighRise04.fbx @position 3 1 0 @scale 1"
								}

							}
, 							{
								"box" : 								{
									"attr" : "enable",
									"id" : "obj-16",
									"maxclass" : "attrui",
									"numinlets" : 1,
									"numoutlets" : 1,
									"outlettype" : [ "" ],
									"patching_rect" : [ 195.0, 228.0, 150.0, 22.0 ]
								}

							}
, 							{
								"box" : 								{
									"attr" : "position",
									"id" : "obj-22",
									"maxclass" : "attrui",
									"numinlets" : 1,
									"numoutlets" : 1,
									"outlettype" : [ "" ],
									"patching_rect" : [ 19.0, 19.0, 256.0, 22.0 ]
								}

							}
 ],
						"lines" : [ 							{
								"patchline" : 								{
									"destination" : [ "obj-13", 0 ],
									"source" : [ "obj-15", 0 ]
								}

							}
, 							{
								"patchline" : 								{
									"destination" : [ "obj-13", 0 ],
									"source" : [ "obj-16", 0 ]
								}

							}
, 							{
								"patchline" : 								{
									"destination" : [ "obj-13", 0 ],
									"source" : [ "obj-22", 0 ]
								}

							}
 ],
						"accentcolor" : [ 0.498039215686275, 0.498039215686275, 0.498039215686275, 1.0 ],
						"textcolor" : [ 0.858823529411765, 0.858823529411765, 0.858823529411765, 1.0 ],
						"patchlinecolor" : [ 0.701960784313725, 0.701960784313725, 0.701960784313725, 1.0 ],
						"bgcolor" : [ 0.192156862745098, 0.192156862745098, 0.192156862745098, 1.0 ],
						"editing_bgcolor" : [ 0.356862745098039, 0.356862745098039, 0.356862745098039, 1.0 ],
						"stripecolor" : [ 0.698039215686274, 0.698039215686274, 0.698039215686274, 1.0 ]
					}
,
					"patching_rect" : [ 622.5, 160.0, 81.0, 22.0 ],
					"saved_object_attributes" : 					{
						"accentcolor" : [ 0.498039215686275, 0.498039215686275, 0.498039215686275, 1.0 ],
						"description" : "",
						"digest" : "",
						"editing_bgcolor" : [ 0.356862745098039, 0.356862745098039, 0.356862745098039, 1.0 ],
						"globalpatchername" : "",
						"locked_bgcolor" : [ 0.192156862745098, 0.192156862745098, 0.192156862745098, 1.0 ],
						"patchlinecolor" : [ 0.701960784313725, 0.701960784313725, 0.701960784313725, 1.0 ],
						"stripecolor" : [ 0.698039215686274, 0.698039215686274, 0.698039215686274, 1.0 ],
						"tags" : "",
						"textcolor" : [ 0.858823529411765, 0.858823529411765, 0.858823529411765, 1.0 ]
					}
,
					"text" : "p HighRise04"
				}

			}
, 			{
				"box" : 				{
					"id" : "obj-15",
					"maxclass" : "newobj",
					"numinlets" : 0,
					"numoutlets" : 0,
					"patcher" : 					{
						"fileversion" : 1,
						"appversion" : 						{
							"major" : 8,
							"minor" : 1,
							"revision" : 1,
							"architecture" : "x64",
							"modernui" : 1
						}
,
						"classnamespace" : "box",
						"rect" : [ 587.0, 567.0, 566.0, 429.0 ],
						"bglocked" : 0,
						"openinpresentation" : 0,
						"default_fontsize" : 12.0,
						"default_fontface" : 0,
						"default_fontname" : "Arial",
						"gridonopen" : 1,
						"gridsize" : [ 15.0, 15.0 ],
						"gridsnaponopen" : 1,
						"objectsnaponopen" : 1,
						"statusbarvisible" : 2,
						"toolbarvisible" : 1,
						"lefttoolbarpinned" : 0,
						"toptoolbarpinned" : 0,
						"righttoolbarpinned" : 0,
						"bottomtoolbarpinned" : 0,
						"toolbars_unpinned_last_save" : 0,
						"tallnewobj" : 0,
						"boxanimatetime" : 200,
						"enablehscroll" : 1,
						"enablevscroll" : 1,
						"devicewidth" : 0.0,
						"description" : "",
						"digest" : "",
						"tags" : "",
						"style" : "",
						"subpatcher_template" : "magfoto-2019",
						"boxes" : [ 							{
								"box" : 								{
									"id" : "obj-5",
									"maxclass" : "button",
									"numinlets" : 1,
									"numoutlets" : 1,
									"outlettype" : [ "bang" ],
									"parameter_enable" : 0,
									"patching_rect" : [ 175.0, 59.0, 24.0, 24.0 ]
								}

							}
, 							{
								"box" : 								{
									"id" : "obj-15",
									"maxclass" : "newobj",
									"numinlets" : 1,
									"numoutlets" : 2,
									"outlettype" : [ "jit_gl_texture", "" ],
									"patching_rect" : [ 56.0, 194.0, 70.0, 22.0 ],
									"text" : "jit.gl.texture"
								}

							}
, 							{
								"box" : 								{
									"id" : "obj-13",
									"maxclass" : "newobj",
									"numinlets" : 1,
									"numoutlets" : 2,
									"outlettype" : [ "jit_matrix", "" ],
									"patching_rect" : [ 19.0, 277.0, 361.0, 22.0 ],
									"text" : "jit.gl.model scene @file HighRise03.fbx @position 0 1 -1 @scale 1"
								}

							}
, 							{
								"box" : 								{
									"attr" : "enable",
									"id" : "obj-16",
									"maxclass" : "attrui",
									"numinlets" : 1,
									"numoutlets" : 1,
									"outlettype" : [ "" ],
									"patching_rect" : [ 195.0, 228.0, 150.0, 22.0 ]
								}

							}
, 							{
								"box" : 								{
									"attr" : "position",
									"id" : "obj-22",
									"maxclass" : "attrui",
									"numinlets" : 1,
									"numoutlets" : 1,
									"outlettype" : [ "" ],
									"patching_rect" : [ 19.0, 19.0, 256.0, 22.0 ]
								}

							}
 ],
						"lines" : [ 							{
								"patchline" : 								{
									"destination" : [ "obj-13", 0 ],
									"source" : [ "obj-15", 0 ]
								}

							}
, 							{
								"patchline" : 								{
									"destination" : [ "obj-13", 0 ],
									"source" : [ "obj-16", 0 ]
								}

							}
, 							{
								"patchline" : 								{
									"destination" : [ "obj-13", 0 ],
									"source" : [ "obj-22", 0 ]
								}

							}
 ],
						"accentcolor" : [ 0.498039215686275, 0.498039215686275, 0.498039215686275, 1.0 ],
						"textcolor" : [ 0.858823529411765, 0.858823529411765, 0.858823529411765, 1.0 ],
						"patchlinecolor" : [ 0.701960784313725, 0.701960784313725, 0.701960784313725, 1.0 ],
						"bgcolor" : [ 0.192156862745098, 0.192156862745098, 0.192156862745098, 1.0 ],
						"editing_bgcolor" : [ 0.356862745098039, 0.356862745098039, 0.356862745098039, 1.0 ],
						"stripecolor" : [ 0.698039215686274, 0.698039215686274, 0.698039215686274, 1.0 ]
					}
,
					"patching_rect" : [ 55.5, 71.0, 81.0, 22.0 ],
					"saved_object_attributes" : 					{
						"accentcolor" : [ 0.498039215686275, 0.498039215686275, 0.498039215686275, 1.0 ],
						"description" : "",
						"digest" : "",
						"editing_bgcolor" : [ 0.356862745098039, 0.356862745098039, 0.356862745098039, 1.0 ],
						"globalpatchername" : "",
						"locked_bgcolor" : [ 0.192156862745098, 0.192156862745098, 0.192156862745098, 1.0 ],
						"patchlinecolor" : [ 0.701960784313725, 0.701960784313725, 0.701960784313725, 1.0 ],
						"stripecolor" : [ 0.698039215686274, 0.698039215686274, 0.698039215686274, 1.0 ],
						"tags" : "",
						"textcolor" : [ 0.858823529411765, 0.858823529411765, 0.858823529411765, 1.0 ]
					}
,
					"text" : "p HighRise03"
				}

			}
, 			{
				"box" : 				{
					"id" : "obj-14",
					"maxclass" : "newobj",
					"numinlets" : 0,
					"numoutlets" : 0,
					"patcher" : 					{
						"fileversion" : 1,
						"appversion" : 						{
							"major" : 8,
							"minor" : 1,
							"revision" : 1,
							"architecture" : "x64",
							"modernui" : 1
						}
,
						"classnamespace" : "box",
						"rect" : [ 158.0, 208.0, 562.0, 591.0 ],
						"bglocked" : 0,
						"openinpresentation" : 0,
						"default_fontsize" : 12.0,
						"default_fontface" : 0,
						"default_fontname" : "Arial",
						"gridonopen" : 1,
						"gridsize" : [ 15.0, 15.0 ],
						"gridsnaponopen" : 1,
						"objectsnaponopen" : 1,
						"statusbarvisible" : 2,
						"toolbarvisible" : 1,
						"lefttoolbarpinned" : 0,
						"toptoolbarpinned" : 0,
						"righttoolbarpinned" : 0,
						"bottomtoolbarpinned" : 0,
						"toolbars_unpinned_last_save" : 0,
						"tallnewobj" : 0,
						"boxanimatetime" : 200,
						"enablehscroll" : 1,
						"enablevscroll" : 1,
						"devicewidth" : 0.0,
						"description" : "",
						"digest" : "",
						"tags" : "",
						"style" : "",
						"subpatcher_template" : "magfoto-2019",
						"boxes" : [ 							{
								"box" : 								{
									"id" : "obj-5",
									"maxclass" : "button",
									"numinlets" : 1,
									"numoutlets" : 1,
									"outlettype" : [ "bang" ],
									"parameter_enable" : 0,
									"patching_rect" : [ 175.0, 59.0, 24.0, 24.0 ]
								}

							}
, 							{
								"box" : 								{
									"id" : "obj-15",
									"maxclass" : "newobj",
									"numinlets" : 1,
									"numoutlets" : 2,
									"outlettype" : [ "jit_gl_texture", "" ],
									"patching_rect" : [ 56.0, 194.0, 70.0, 22.0 ],
									"text" : "jit.gl.texture"
								}

							}
, 							{
								"box" : 								{
									"id" : "obj-13",
									"maxclass" : "newobj",
									"numinlets" : 1,
									"numoutlets" : 2,
									"outlettype" : [ "jit_matrix", "" ],
									"patching_rect" : [ 19.0, 272.0, 361.0, 22.0 ],
									"text" : "jit.gl.model scene @file HighRise01.fbx @position -1 1 0 @scale 1"
								}

							}
, 							{
								"box" : 								{
									"attr" : "enable",
									"id" : "obj-16",
									"maxclass" : "attrui",
									"numinlets" : 1,
									"numoutlets" : 1,
									"outlettype" : [ "" ],
									"patching_rect" : [ 195.0, 228.0, 150.0, 22.0 ]
								}

							}
, 							{
								"box" : 								{
									"attr" : "position",
									"id" : "obj-22",
									"maxclass" : "attrui",
									"numinlets" : 1,
									"numoutlets" : 1,
									"outlettype" : [ "" ],
									"patching_rect" : [ 19.0, 19.0, 256.0, 22.0 ]
								}

							}
 ],
						"lines" : [ 							{
								"patchline" : 								{
									"destination" : [ "obj-13", 0 ],
									"source" : [ "obj-15", 0 ]
								}

							}
, 							{
								"patchline" : 								{
									"destination" : [ "obj-13", 0 ],
									"source" : [ "obj-16", 0 ]
								}

							}
, 							{
								"patchline" : 								{
									"destination" : [ "obj-13", 0 ],
									"source" : [ "obj-22", 0 ]
								}

							}
 ],
						"accentcolor" : [ 0.498039215686275, 0.498039215686275, 0.498039215686275, 1.0 ],
						"textcolor" : [ 0.858823529411765, 0.858823529411765, 0.858823529411765, 1.0 ],
						"patchlinecolor" : [ 0.701960784313725, 0.701960784313725, 0.701960784313725, 1.0 ],
						"bgcolor" : [ 0.192156862745098, 0.192156862745098, 0.192156862745098, 1.0 ],
						"editing_bgcolor" : [ 0.356862745098039, 0.356862745098039, 0.356862745098039, 1.0 ],
						"stripecolor" : [ 0.698039215686274, 0.698039215686274, 0.698039215686274, 1.0 ]
					}
,
					"patching_rect" : [ 155.0, 79.0, 81.0, 22.0 ],
					"saved_object_attributes" : 					{
						"accentcolor" : [ 0.498039215686275, 0.498039215686275, 0.498039215686275, 1.0 ],
						"description" : "",
						"digest" : "",
						"editing_bgcolor" : [ 0.356862745098039, 0.356862745098039, 0.356862745098039, 1.0 ],
						"globalpatchername" : "",
						"locked_bgcolor" : [ 0.192156862745098, 0.192156862745098, 0.192156862745098, 1.0 ],
						"patchlinecolor" : [ 0.701960784313725, 0.701960784313725, 0.701960784313725, 1.0 ],
						"stripecolor" : [ 0.698039215686274, 0.698039215686274, 0.698039215686274, 1.0 ],
						"tags" : "",
						"textcolor" : [ 0.858823529411765, 0.858823529411765, 0.858823529411765, 1.0 ]
					}
,
					"text" : "p HighRise01"
				}

			}
, 			{
				"box" : 				{
					"id" : "obj-13",
					"maxclass" : "newobj",
					"numinlets" : 0,
					"numoutlets" : 0,
					"patcher" : 					{
						"fileversion" : 1,
						"appversion" : 						{
							"major" : 8,
							"minor" : 1,
							"revision" : 1,
							"architecture" : "x64",
							"modernui" : 1
						}
,
						"classnamespace" : "box",
						"rect" : [ 396.0, 309.0, 562.0, 422.0 ],
						"bglocked" : 0,
						"openinpresentation" : 0,
						"default_fontsize" : 12.0,
						"default_fontface" : 0,
						"default_fontname" : "Arial",
						"gridonopen" : 1,
						"gridsize" : [ 15.0, 15.0 ],
						"gridsnaponopen" : 1,
						"objectsnaponopen" : 1,
						"statusbarvisible" : 2,
						"toolbarvisible" : 1,
						"lefttoolbarpinned" : 0,
						"toptoolbarpinned" : 0,
						"righttoolbarpinned" : 0,
						"bottomtoolbarpinned" : 0,
						"toolbars_unpinned_last_save" : 0,
						"tallnewobj" : 0,
						"boxanimatetime" : 200,
						"enablehscroll" : 1,
						"enablevscroll" : 1,
						"devicewidth" : 0.0,
						"description" : "",
						"digest" : "",
						"tags" : "",
						"style" : "",
						"subpatcher_template" : "magfoto-2019",
						"boxes" : [ 							{
								"box" : 								{
									"autofit" : 1,
									"forceaspect" : 1,
									"id" : "obj-1",
									"maxclass" : "fpic",
									"numinlets" : 1,
									"numoutlets" : 1,
									"outlettype" : [ "jit_matrix" ],
									"patching_rect" : [ 141.0, 101.0, 100.0, 97.65625 ],
									"pic" : "C:/Users/sunwu/Downloads/Buildings-20191128T193557Z-001/Buildings/HighRise05.jpg"
								}

							}
, 							{
								"box" : 								{
									"id" : "obj-5",
									"maxclass" : "button",
									"numinlets" : 1,
									"numoutlets" : 1,
									"outlettype" : [ "bang" ],
									"parameter_enable" : 0,
									"patching_rect" : [ 175.0, 59.0, 24.0, 24.0 ]
								}

							}
, 							{
								"box" : 								{
									"id" : "obj-15",
									"maxclass" : "newobj",
									"numinlets" : 1,
									"numoutlets" : 2,
									"outlettype" : [ "jit_gl_texture", "" ],
									"patching_rect" : [ 56.0, 194.0, 70.0, 22.0 ],
									"text" : "jit.gl.texture"
								}

							}
, 							{
								"box" : 								{
									"id" : "obj-13",
									"maxclass" : "newobj",
									"numinlets" : 1,
									"numoutlets" : 2,
									"outlettype" : [ "jit_matrix", "" ],
									"patching_rect" : [ 19.0, 272.0, 371.0, 22.0 ],
									"text" : "jit.gl.model scene @file HighRise05.fbx @position -2.5 1 1 @scale 1"
								}

							}
, 							{
								"box" : 								{
									"attr" : "enable",
									"id" : "obj-16",
									"maxclass" : "attrui",
									"numinlets" : 1,
									"numoutlets" : 1,
									"outlettype" : [ "" ],
									"patching_rect" : [ 195.0, 228.0, 150.0, 22.0 ]
								}

							}
, 							{
								"box" : 								{
									"attr" : "position",
									"id" : "obj-22",
									"maxclass" : "attrui",
									"numinlets" : 1,
									"numoutlets" : 1,
									"outlettype" : [ "" ],
									"patching_rect" : [ 19.0, 19.0, 256.0, 22.0 ]
								}

							}
 ],
						"lines" : [ 							{
								"patchline" : 								{
									"destination" : [ "obj-15", 0 ],
									"source" : [ "obj-1", 0 ]
								}

							}
, 							{
								"patchline" : 								{
									"destination" : [ "obj-13", 0 ],
									"source" : [ "obj-15", 0 ]
								}

							}
, 							{
								"patchline" : 								{
									"destination" : [ "obj-13", 0 ],
									"source" : [ "obj-16", 0 ]
								}

							}
, 							{
								"patchline" : 								{
									"destination" : [ "obj-13", 0 ],
									"source" : [ "obj-22", 0 ]
								}

							}
, 							{
								"patchline" : 								{
									"destination" : [ "obj-1", 0 ],
									"source" : [ "obj-5", 0 ]
								}

							}
 ],
						"accentcolor" : [ 0.498039215686275, 0.498039215686275, 0.498039215686275, 1.0 ],
						"textcolor" : [ 0.858823529411765, 0.858823529411765, 0.858823529411765, 1.0 ],
						"patchlinecolor" : [ 0.701960784313725, 0.701960784313725, 0.701960784313725, 1.0 ],
						"bgcolor" : [ 0.192156862745098, 0.192156862745098, 0.192156862745098, 1.0 ],
						"editing_bgcolor" : [ 0.356862745098039, 0.356862745098039, 0.356862745098039, 1.0 ],
						"stripecolor" : [ 0.698039215686274, 0.698039215686274, 0.698039215686274, 1.0 ]
					}
,
					"patching_rect" : [ 55.5, 104.0, 81.0, 22.0 ],
					"saved_object_attributes" : 					{
						"accentcolor" : [ 0.498039215686275, 0.498039215686275, 0.498039215686275, 1.0 ],
						"description" : "",
						"digest" : "",
						"editing_bgcolor" : [ 0.356862745098039, 0.356862745098039, 0.356862745098039, 1.0 ],
						"globalpatchername" : "",
						"locked_bgcolor" : [ 0.192156862745098, 0.192156862745098, 0.192156862745098, 1.0 ],
						"patchlinecolor" : [ 0.701960784313725, 0.701960784313725, 0.701960784313725, 1.0 ],
						"stripecolor" : [ 0.698039215686274, 0.698039215686274, 0.698039215686274, 1.0 ],
						"tags" : "",
						"textcolor" : [ 0.858823529411765, 0.858823529411765, 0.858823529411765, 1.0 ]
					}
,
					"text" : "p HighRise05"
				}

			}
 ],
		"lines" : [  ]
	}

}
